Coordinates
version=1
nRows=11
nColumns=63
inDegrees=yes

Units are S.I. units (second, meters, Newtons, ...)
If the header above contains a line with 'inDegrees', this indicates whether rotational values are in degrees (yes) or radians (no).

endheader
time	pelvis_tilt	pelvis_list	pelvis_rotation	pelvis_tx	pelvis_ty	pelvis_tz	hip_flexion_r	hip_adduction_r	hip_rotation_r	knee_angle_r	knee_angle_r_beta	ankle_angle_r	subtalar_angle_r	mtp_angle_r	hip_flexion_l	hip_adduction_l	hip_rotation_l	knee_angle_l	knee_angle_l_beta	ankle_angle_l	subtalar_angle_l	mtp_angle_l	L5_S1_Flex_Ext	L5_S1_Lat_Bending	L5_S1_axial_rotation	L4_L5_Flex_Ext	L4_L5_Lat_Bending	L4_L5_axial_rotation	L3_L4_Flex_Ext	L3_L4_Lat_Bending	L3_L4_axial_rotation	L2_L3_Flex_Ext	L2_L3_Lat_Bending	L2_L3_axial_rotation	L1_L2_Flex_Ext	L1_L2_Lat_Bending	L1_L2_axial_rotation	L1_T12_Flex_Ext	L1_T12_Lat_Bending	L1_T12_axial_rotation	Abs_r3	Abs_r2	Abs_r1	Abs_t1	Abs_t2	neck_flexion	neck_bending	neck_rotation	arm_flex_r	arm_add_r	arm_rot_r	elbow_flex_r	pro_sup_r	wrist_flex_r	wrist_dev_r	arm_flex_l	arm_add_l	arm_rot_l	elbow_flex_l	pro_sup_l	wrist_flex_l	wrist_dev_l
      1.89830508	      3.00937516	     -6.94693667	    107.91293869	      0.19882836	      1.00779822	      0.13016045	      6.51580488	      1.61694432	    -30.09862989	     14.56811369	      0.25426155	     38.74030978	     17.47653280	      0.00000000	     11.60552774	     -3.77604747	     -5.11932342	     17.57261212	      0.30669994	     36.00051073	     15.73274803	      0.00000000	     -0.25625438	      0.17591911	     -2.50947064	     -0.47589002	      0.23397242	     -2.66631256	     -0.42100033	      0.42772972	     -2.66631256	     -0.29287314	      0.42772972	     -2.19578681	     -0.23795782	      0.35873425	     -2.03894490	     -0.14642376	      0.27249870	     -1.88210298	     -1.83039944	      1.99003215	    -13.95692288	      0.00000000	      0.00000000	      6.60582356	     11.18835333	     12.35369999	     38.04056054	    -23.19556290	    -13.13980169	    149.74015410	     86.98495813	    -11.65319173	     20.19874911	    -13.60838577	    -13.78616419	     15.25417627	     47.62343058	     85.12374363	    -17.80613248	      0.28074492
      1.91525424	      2.95989704	     -7.17908880	    108.08382087	      0.19928476	      1.00756307	      0.12912078	      6.57878805	      1.60289808	    -30.22466453	     14.34983131	      0.25045180	     38.77506796	     17.43025178	      0.00000000	     11.71166602	     -3.70072519	     -5.21900081	     17.46663625	      0.30485031	     35.71204592	     15.69995546	      0.00000000	     -0.22725111	      0.15544389	     -2.37660431	     -0.42202803	      0.20674037	     -2.52514208	     -0.37335085	      0.37794627	     -2.52514208	     -0.25972529	      0.37794627	     -2.07952877	     -0.21102538	      0.31698118	     -1.93099100	     -0.12985128	      0.24078258	     -1.78245323	     -1.62323195	      1.75841237	    -13.21796019	      0.00000000	      0.00000000	      7.48256327	     10.81179318	      7.92940741	     36.49942672	    -23.30414739	    -13.39033770	    149.60642868	     87.97322637	    -11.35968758	     22.32765559	    -13.28442337	    -14.16105298	     16.07575826	     47.60917256	     85.22380397	    -17.64885246	      0.33570653
      1.93220339	      2.92596067	     -7.35722665	    108.10425329	      0.19966304	      1.00737222	      0.12829063	      6.65392311	      1.58211935	    -30.28793436	     14.24045851	      0.24854289	     38.79636047	     17.39957511	      0.00000000	     11.78157873	     -3.65945833	     -5.41661579	     17.42744180	      0.30416624	     35.43312606	     15.52703527	      0.00000000	     -0.20961816	      0.14104049	     -2.23245298	     -0.38928188	      0.18758386	     -2.37198130	     -0.34438167	      0.34292586	     -2.37198130	     -0.23957259	      0.34292586	     -1.95339636	     -0.19465142	      0.28760978	     -1.81386805	     -0.11977581	      0.21847173	     -1.67433974	     -1.49728153	      1.59547828	    -12.41623377	      0.00000000	      0.00000000	      8.44675884	      9.95248335	      2.68565297	     35.35480903	    -23.30230944	    -12.91460458	    149.12051679	     88.40373851	    -10.03195250	     24.31480957	    -12.92406714	    -14.45268860	     16.91037500	     47.57832604	     85.26247011	    -17.62768839	      0.31642008
      1.94915254	      2.91761808	     -7.41359337	    108.04170966	      0.20005405	      1.00714848	      0.12833771	      6.70830559	      1.59407028	    -30.29592662	     14.20383092	      0.24790362	     38.80077128	     17.35707706	      0.00000000	     11.88432736	     -3.67751013	     -5.63169797	     17.56288035	      0.30653009	     35.27104841	     15.33518066	      0.00000000	     -0.21717536	      0.14244440	     -2.19998072	     -0.40331636	      0.18945105	     -2.33747952	     -0.35679740	      0.34633932	     -2.33747952	     -0.24820972	      0.34633932	     -1.92498313	     -0.20166904	      0.29047262	     -1.78748434	     -0.12409400	      0.22064638	     -1.64998554	     -1.55126187	      1.61135956	    -12.23563280	      0.00000000	      0.00000000	      9.08411540	      9.17202965	     -1.49814279	     35.26581890	    -22.76844227	    -10.49521668	    147.60359581	     88.65148376	     -8.58776735	     24.64523929	    -12.81731189	    -14.55388391	     17.14515039	     47.65379794	     85.29674723	    -17.73863363	      0.06049846
      1.96610169	      2.91077235	     -7.41099451	    107.91087273	      0.20039601	      1.00696200	      0.12876876	      6.75172805	      1.59803590	    -30.30257504	     14.23717488	      0.24848558	     38.75481888	     17.28935625	      0.00000000	     11.98569305	     -3.69178990	     -5.78661677	     17.73698394	      0.30956877	     35.22676472	     15.07267779	      0.00000000	     -0.23314007	      0.14930324	     -2.18284287	     -0.43296442	      0.19857331	     -2.31927055	     -0.38302582	      0.36301590	     -2.31927055	     -0.26645578	      0.36301590	     -1.90998751	     -0.21649387	      0.30445917	     -1.77355983	     -0.13321623	      0.23127072	     -1.63713215	     -1.66529618	      1.68894811	    -12.14031719	      0.00000000	      0.00000000	      9.43947484	      8.69567130	     -5.13853173	     35.64308057	    -22.07449100	     -7.12409814	    145.77589063	     88.73043699	     -7.53713524	     24.31836233	    -12.66486673	    -14.63387161	     17.39286923	     47.69662910	     85.33402692	    -17.81283222	     -0.32346143
      1.98305085	      2.86279595	     -7.42678994	    107.78109206	      0.20078031	      1.00672088	      0.12929601	      6.81849896	      1.52222746	    -30.49731350	     14.35040006	      0.25046173	     38.66817657	     17.30848827	      0.00000000	     12.13988342	     -3.67453293	     -6.00384214	     17.94698624	      0.31323400	     35.27929756	     15.04924655	      0.00000000	     -0.24738011	      0.15101687	     -2.14645213	     -0.45940961	      0.20085243	     -2.28060538	     -0.40642079	      0.36718241	     -2.28060538	     -0.28273073	      0.36718241	     -1.87814561	     -0.22971717	      0.30795360	     -1.74399235	     -0.14135300	      0.23392513	     -1.60983909	     -1.76701141	      1.70833301	    -11.93792279	      0.00000000	      0.00000000	      9.78840550	      8.53742074	     -8.21949132	     36.16165330	    -21.35857839	     -3.37689934	    144.03478540	     88.72049810	     -6.95509829	     23.87102144	    -12.46385672	    -14.73445101	     17.63128291	     47.78156767	     85.59772471	    -17.87088949	     -0.77782779
      2.00000000	      2.85934750	     -7.60377869	    107.69051241	      0.20094313	      1.00638399	      0.12970734	      6.97460952	      1.47226791	    -30.72712736	     14.32558716	      0.25002866	     38.42096816	     17.27906054	      0.00000000	     12.38850325	     -3.61008459	     -6.08602327	     17.99152399	      0.31401133	     35.30459812	     15.03820080	      0.00000000	     -0.22426237	      0.15317998	     -2.06686203	     -0.41647765	      0.20372937	     -2.19604091	     -0.36844065	      0.37244179	     -2.19604091	     -0.25630946	      0.37244179	     -1.80850428	     -0.20825004	      0.31236461	     -1.67932540	     -0.12814352	      0.23727578	     -1.55014652	     -1.60188368	      1.73280251	    -11.49526656	      0.00000000	      0.00000000	     10.04144710	      9.39746962	    -10.29273561	     36.62357974	    -20.81641113	      0.18624224	    142.55030749	     88.67205485	     -6.29726730	     23.79279067	    -12.04040646	    -14.75429412	     18.04116668	     47.62471406	     85.78412871	    -17.75828093	     -0.90185017
      2.01694915	      2.82203924	     -7.77051815	    107.54213626	      0.20123383	      1.00592849	      0.13025612	      7.15102590	      1.37242183	    -30.92506463	     14.39086858	      0.25116804	     38.23181081	     17.25677803	      0.00000000	     12.66200356	     -3.54624616	     -6.18660601	     18.14200361	      0.31663770	     35.33058285	     15.01003021	      0.00000000	     -0.21191586	      0.15090590	     -1.97864751	     -0.39354894	      0.20070485	     -2.10231298	     -0.34815656	      0.36691262	     -2.10231298	     -0.24219863	      0.36691262	     -1.73131657	     -0.19678506	      0.30772732	     -1.60765110	     -0.12108872	      0.23375325	     -1.48398563	     -1.51369377	      1.70707778	    -11.00464385	      0.00000000	      0.00000000	     10.55567370	     10.01262071	    -12.06156049	     37.28158393	    -20.06490565	      3.56661099	    141.07022195	     88.65064971	     -5.64090772	     23.43477929	    -11.64480118	    -14.85460461	     18.43839892	     47.62500452	     85.97361414	    -17.67757608	     -1.15648679
      2.03389831	      2.69432178	     -7.91603038	    107.08272674	      0.20156993	      1.00530704	      0.13133142	      7.58010646	      1.01653994	    -30.88049003	     15.04216700	      0.26253534	     38.40860510	     17.37347897	      0.00000000	     13.05221897	     -3.50433871	     -6.80977626	     18.68818300	      0.32617032	     35.35521884	     15.13017382	      0.00000000	     -0.22594576	      0.15089375	     -1.88850205	     -0.41960388	      0.20068869	     -2.00653343	     -0.37120629	      0.36688307	     -2.00653343	     -0.25823341	      0.36688307	     -1.65243930	     -0.20981324	      0.30770254	     -1.53440792	     -0.12910541	      0.23373442	     -1.41637654	     -1.61390799	      1.70694029	    -10.50328187	      0.00000000	      0.00000000	     11.50559689	     10.12583489	    -12.74884208	     38.16642754	    -19.16045965	      6.89726004	    139.01533781	     88.70646409	     -4.65664380	     19.65263818	    -11.39134462	    -14.81373432	     18.68006088	     47.68172804	     85.90028445	    -18.35190941	     -2.50863305
      2.05084746	      2.69695728	     -8.16699113	    106.85701811	      0.20169633	      1.00464684	      0.13186608	      7.91949103	      0.91273640	    -30.83524126	     15.17896279	      0.26492288	     38.39236650	     17.37936197	      0.00000000	     13.44907971	     -3.49316702	     -7.04023917	     18.98043220	      0.33127104	     35.36291540	     14.99554552	      0.00000000	     -0.20576380	      0.15844292	     -1.77198023	     -0.38212395	      0.21072909	     -1.88272900	     -0.33804934	      0.38523812	     -1.88272900	     -0.23516744	      0.38523812	     -1.55048270	     -0.19107226	      0.32309681	     -1.43973394	     -0.11757343	      0.24542809	     -1.32898518	     -1.46975023	      1.79233804	     -9.85522247	      0.00000000	      0.00000000	     12.32511813	     10.62436166	    -13.30129563	     38.86691105	    -18.22265836	      8.62431974	    137.94921637	     88.87814871	     -1.70498108	     19.19384386	    -10.88353769	    -14.84733811	     19.39939999	     47.58882691	     85.83643385	    -18.58699783	     -2.74554925
      2.06779661	      2.72283616	     -8.41685702	    106.87002678	      0.20145419	      1.00406609	      0.13204042	      8.14690636	      0.87459279	    -30.87244731	     15.07633569	      0.26313170	     38.47343837	     17.42039602	      0.00000000	     13.77884423	     -3.45661754	     -7.07141648	     19.12594502	      0.33381071	     35.35102238	     14.90050150	      0.00000000	     -0.17715944	      0.16760483	     -1.68691402	     -0.32900280	      0.22291442	     -1.79234614	     -0.29105525	      0.40751437	     -1.79234614	     -0.20247553	      0.40751437	     -1.47604976	     -0.16451026	      0.34177976	     -1.37061764	     -0.10122891	      0.25961988	     -1.26518551	     -1.26543219	      1.89597932	     -9.38210968	      0.00000000	      0.00000000	     12.94074078	     10.94389352	    -13.95703873	     39.37638426	    -17.31128925	     10.18188491	    137.51297581	     89.05800596	     -0.92860590	     19.25977020	    -10.44403453	    -14.70821515	     19.77473946	     47.33691763	     85.91195996	    -18.48045871	     -2.63836978
